<svg width="30" height="30" viewBox="0 0 30 30" fill="none" xmlns="http://www.w3.org/2000/svg">
<mask id="mask0_1117_27311" style="mask-type:alpha" maskUnits="userSpaceOnUse" x="0" y="0" width="30" height="30">
<rect x="30" y="30" width="30" height="30" transform="rotate(180 30 30)" fill="#D9D9D9"/>
</mask>
<g mask="url(#mask0_1117_27311)">
<path d="M20 7.5L18.125 7.5L18.125 10L15.625 10L15.625 11.875L18.125 11.875L18.125 14.375L20 14.375L20 11.875L22.5 11.875L22.5 10L20 10L20 7.5ZM13.75 8.4375L7.5 8.4375L7.5 10.3125L13.75 10.3125L13.75 8.4375ZM13.75 11.5625L7.5 11.5625L7.5 13.4375L13.75 13.4375L13.75 11.5625ZM12.375 16.3125L10.625 18.0625L8.875 16.3125L7.5625 17.625L9.3125 19.4375L7.5625 21.1875L8.875 22.5L10.625 20.75L12.375 22.5L13.6875 21.1875L11.9375 19.4375L13.6875 17.625L12.375 16.3125ZM22.1875 18.5L15.9375 18.5L15.9375 20.375L22.1875 20.375L22.1875 18.5ZM23.75 3.75C24.4375 3.75 25.026 3.99479 25.5156 4.48438C26.0052 4.97396 26.25 5.5625 26.25 6.25L26.25 23.75C26.25 24.4375 26.0052 25.026 25.5156 25.5156C25.026 26.0052 24.4375 26.25 23.75 26.25L6.25 26.25C5.5625 26.25 4.97396 26.0052 4.48437 25.5156C3.99479 25.026 3.75 24.4375 3.75 23.75L3.75 6.25C3.75 5.5625 3.99479 4.97396 4.48437 4.48438C4.97396 3.99479 5.5625 3.75 6.25 3.75L23.75 3.75Z" fill="#666666"/>
</g>
</svg>
