<svg width="30" height="30" viewBox="0 0 30 30" fill="none" xmlns="http://www.w3.org/2000/svg">
<mask id="mask0_1117_27312" style="mask-type:alpha" maskUnits="userSpaceOnUse" x="0" y="0" width="30" height="30">
<rect width="30" height="30" fill="#D9D9D9"/>
</mask>
<g mask="url(#mask0_1117_27312)">
<path d="M19.0401 14.2155C18.8521 13.6725 18.565 13.1974 18.1786 12.7901C17.7922 12.3828 17.3275 12.0852 16.7845 11.8972V3C19.7711 3.2924 22.3139 4.4881 24.4129 6.58709C26.5119 8.68609 27.7076 11.2289 28 14.2155H19.0401ZM14.2782 27.9373C11.0618 27.6241 8.37803 26.2769 6.22682 23.896C4.07561 21.515 3 18.7059 3 15.4687C3 12.2314 4.07561 9.42231 6.22682 7.04135C8.37803 4.6604 11.0618 3.31328 14.2782 3V11.8972C13.5263 12.1688 12.9206 12.6335 12.4612 13.2914C12.0017 13.9492 11.7719 14.675 11.7719 15.4687C11.7719 16.2623 12.0017 16.9777 12.4612 17.6147C12.9206 18.2517 13.5263 18.7059 14.2782 18.9774V27.9373ZM16.7845 27.9373V18.9774C17.3275 18.7895 17.7922 18.5023 18.1786 18.1159C18.565 17.7295 18.8521 17.2648 19.0401 16.7218H28C27.7076 19.7084 26.5119 22.2513 24.4129 24.3503C22.3139 26.4492 19.7711 27.6449 16.7845 27.9373Z" fill="#666666"/>
</g>
</svg>
