    <svg width="30" height="30" viewBox="0 0 30 30" fill="none" xmlns="http://www.w3.org/2000/svg">
<mask id="mask0_1117_27309" style="mask-type:alpha" maskUnits="userSpaceOnUse" x="0" y="0" width="30" height="30">
<rect width="30" height="30" fill="#D9D9D9"/>
</mask>
<g mask="url(#mask0_1117_27309)">
<path d="M5 25V8.875L2.5625 3.5625L4.8125 2.5L7.75 8.8125H22.25L25.1875 2.5L27.4375 3.5625L25 8.875V25H5ZM12.5 16.25H17.5C17.8542 16.25 18.151 16.1302 18.3906 15.8906C18.6302 15.651 18.75 15.3542 18.75 15C18.75 14.6458 18.6302 14.349 18.3906 14.1094C18.151 13.8698 17.8542 13.75 17.5 13.75H12.5C12.1458 13.75 11.849 13.8698 11.6094 14.1094C11.3698 14.349 11.25 14.6458 11.25 15C11.25 15.3542 11.3698 15.651 11.6094 15.8906C11.849 16.1302 12.1458 16.25 12.5 16.25Z" fill="#666666"/>
</g>
</svg>
