<svg width="30" height="30" viewBox="0 0 30 30" fill="none" xmlns="http://www.w3.org/2000/svg">
<mask id="mask0_1117_27310" style="mask-type:alpha" maskUnits="userSpaceOnUse" x="0" y="0" width="30" height="30">
<rect x="30" y="30" width="30" height="30" transform="rotate(180 30 30)" fill="#D9D9D9"/>
</mask>
<g mask="url(#mask0_1117_27310)">
<path d="M21.25 11.25L21.25 18.75C21.25 19.4375 21.0052 20.026 20.5156 20.5156C20.026 21.0052 19.4375 21.25 18.75 21.25L8.5625 21.25L11.7812 24.4688L10 26.25L3.75 20L10 13.75L11.7812 15.5L8.5625 18.75L18.75 18.75L18.75 11.25L21.25 11.25ZM23.75 3.75C24.4375 3.75 25.026 3.99479 25.5156 4.48438C26.0052 4.97396 26.25 5.5625 26.25 6.25L26.25 25L23.75 25L23.75 6.25L8.75 6.25L8.75 11.25L6.25 11.25L6.25 6.25C6.25 5.5625 6.49479 4.97396 6.98437 4.48438C7.47396 3.99479 8.0625 3.75 8.75 3.75L23.75 3.75Z" fill="#666666"/>
</g>
</svg>
