<svg width="30" height="30" viewBox="0 0 30 30" fill="none" xmlns="http://www.w3.org/2000/svg">
<mask id="mask0_1117_27314" style="mask-type:alpha" maskUnits="userSpaceOnUse" x="0" y="0" width="30" height="30">
<rect width="30" height="30" fill="#D9D9D9"/>
</mask>
<g mask="url(#mask0_1117_27314)">
<path d="M21.3496 25.5059L13.7871 17.8809C13.3704 18.0475 12.9486 18.1725 12.5215 18.2559C12.0944 18.3392 11.6413 18.3809 11.1621 18.3809C9.07878 18.3809 7.30794 17.6517 5.84961 16.1934C4.39128 14.735 3.66211 12.9642 3.66211 10.8809C3.66211 10.1309 3.76628 9.41732 3.97461 8.74023C4.18294 8.06315 4.47461 7.42253 4.84961 6.81836L9.41211 11.3809L11.6621 9.13086L7.09961 4.56836C7.70378 4.19336 8.3444 3.90169 9.02148 3.69336C9.69857 3.48503 10.4121 3.38086 11.1621 3.38086C13.2454 3.38086 15.0163 4.11003 16.4746 5.56836C17.9329 7.02669 18.6621 8.79753 18.6621 10.8809C18.6621 11.36 18.6204 11.8132 18.5371 12.2402C18.4538 12.6673 18.3288 13.0892 18.1621 13.5059L25.7871 21.0684C26.0371 21.3184 26.1621 21.6204 26.1621 21.9746C26.1621 22.3288 26.0371 22.6309 25.7871 22.8809L23.1621 25.5059C22.9121 25.7559 22.61 25.8809 22.2559 25.8809C21.9017 25.8809 21.5996 25.7559 21.3496 25.5059Z" fill="#666666"/>
</g>
</svg>
