<svg width="189" height="37" viewBox="0 0 189 37" fill="none" xmlns="http://www.w3.org/2000/svg">
<path d="M24.0146 0.5H12.0084C5.40491 0.5 0.00195312 5.90296 0.00195312 12.5055V12.5072C0.00195312 19.1107 5.40394 24.5136 12.0084 24.5136C18.6116 24.5136 24.0139 19.1107 24.0146 12.5072V0.5Z" fill="white"/>
<path fill-rule="evenodd" clip-rule="evenodd" d="M24.0129 12.5082V0.5H12.0064C5.40296 0.5 0 5.90296 0 12.5064V12.5074C0 19.1107 5.40223 24.5136 12.0064 24.5136C18.6099 24.5136 24.0129 19.1107 24.0129 12.5082ZM6.73609 17.7787C5.31789 16.3608 4.5381 14.4894 4.5381 12.5064C4.5381 8.38834 7.88835 5.03785 12.0064 5.03785H19.475V12.5082C19.475 16.6265 16.1248 19.9758 12.0064 19.9758C10.0244 19.9758 8.15307 19.195 6.73609 17.7787Z" fill="url(#paint0_linear_1630_57795)"/>
<path d="M0 36.5012H12.0064C18.6099 36.5012 24.0129 31.0982 24.0129 24.4947C24.0129 17.8912 18.6099 12.4883 12.0064 12.4883C5.40296 12.4883 0 17.8912 0 24.4947V36.5012Z" fill="white"/>
<path fill-rule="evenodd" clip-rule="evenodd" d="M0 24.4908V36.498H12.0064C18.6107 36.498 24.0136 31.095 24.0136 24.4908C24.0136 17.8873 18.6107 12.4844 12.0064 12.4844C5.40296 12.4844 0 17.8873 0 24.4908ZM4.53785 24.4908C4.53785 20.3725 7.8881 17.0222 12.0064 17.0222C16.1245 17.0222 19.475 20.3725 19.475 24.4908C19.475 26.4728 18.695 28.3442 17.2778 29.7621C15.8598 31.1794 13.9885 31.9592 12.0064 31.9592H4.53785V24.4908Z" fill="url(#paint1_linear_1630_57795)"/>
<path d="M35.9708 25.0397C35.9708 25.0397 39.9144 28.642 44.2957 28.642C46.0484 28.642 47.9463 27.9599 47.9463 25.8667C47.9463 21.7289 32.2712 21.8752 32.2712 11.1655C32.2712 4.73998 37.6742 0.503906 44.5882 0.503906C52.0841 0.503906 55.7837 4.44771 55.7837 4.44771L52.1824 11.4088C52.1824 11.4088 48.6764 8.34228 44.4903 8.34228C42.7376 8.34228 40.79 9.12061 40.79 11.0683C40.79 15.4496 56.4655 14.6706 56.4655 25.6725C56.4655 31.4659 52.0361 36.4794 44.1977 36.4794C36.0198 36.4794 31.4922 31.514 31.4922 31.514L35.9708 25.0397Z" fill="black"/>
<path d="M67.291 1.08984H75.8105V15.012H88.4677V1.08984H96.9865V35.8965H88.4677V22.2656H75.8105V35.8965H67.291V1.08984Z" fill="black"/>
<path d="M107.814 1.08984H116.334V35.8965H107.814V1.08984Z" fill="black"/>
<path d="M127.162 1.08984H148.485V8.39146H135.682V15.694H146.294V22.9966H135.682V35.8965H127.162V1.08984Z" fill="black"/>
<path d="M169.876 8.39171H159.312V1.08984H188.959V8.39171H178.395V35.8967H169.876V8.39171Z" fill="black"/>
<defs>
<linearGradient id="paint0_linear_1630_57795" x1="12.006" y1="24.5139" x2="12.0067" y2="0.499756" gradientUnits="userSpaceOnUse">
<stop stop-color="#4782F6"/>
<stop offset="1" stop-color="#903FFE"/>
</linearGradient>
<linearGradient id="paint1_linear_1630_57795" x1="12.0064" y1="36.4975" x2="12.0064" y2="12.4846" gradientUnits="userSpaceOnUse">
<stop stop-color="#FF6833"/>
<stop offset="1" stop-color="#FE3D4E"/>
</linearGradient>
</defs>
</svg>
